<?xml version="1.0" encoding="iso-8859-1"?>
<!-- Generator: Adobe Illustrator 18.1.1, SVG Export Plug-In . SVG Version: 6.00 Build 0)  -->
<svg version="1.1" id="Capa_1" xmlns="http://www.w3.org/2000/svg" xmlns:xlink="http://www.w3.org/1999/xlink" x="0px" y="0px"
	 viewBox="0 0 371 371" style="enable-background:new 0 0 371 371;" xml:space="preserve">
<g>
	<g id="Layer_5_12_">
		<g>
			<path d="M151.169,97.784l-12.863,0.002c-0.248,0-1.231-0.279-1.231-1.195v-12.9c0-6.596-5.366-11.961-11.961-11.961
				c-6.596,0-11.961,5.365-11.961,11.961v12.565c0,1.262-0.903,1.528-1.721,1.528c-0.001,0-0.003,0-0.004,0H99.059
				c-6.596,0-11.961,5.366-11.961,11.962s5.366,11.961,11.961,11.961h12.71l0.134-0.005c1.25,0,1.25,0.987,1.25,1.358v12.741
				c0,6.596,5.366,11.962,11.961,11.962s11.961-5.366,11.961-11.962V122.89c0-1.106,1.594-1.179,1.756-1.183h12.338
				c6.596,0,11.962-5.365,11.962-11.961S157.765,97.784,151.169,97.784z"/>
			<g>
				<path d="M319.5,371h-268C34.682,371,21,357.317,21,340.5v-310C21,13.683,34.682,0,51.5,0h268C336.317,0,350,13.683,350,30.5v310
					C350,357.317,336.317,371,319.5,371z M51.5,25c-2.981,0-5.5,2.519-5.5,5.5v310c0,2.981,2.519,5.5,5.5,5.5h268
					c2.981,0,5.5-2.519,5.5-5.5v-310c0-2.981-2.519-5.5-5.5-5.5H51.5z"/>
			</g>
			<g>
				<path d="M272.775,208.263H98.225c-3.866,0-7-3.134-7-7s3.134-7,7-7h174.551c3.866,0,7,3.134,7,7
					S276.642,208.263,272.775,208.263z"/>
			</g>
			<g>
				<path d="M272.775,122.246h-47.96c-6.903,0-12.5-5.597-12.5-12.5s5.597-12.5,12.5-12.5h47.96c6.903,0,12.5,5.597,12.5,12.5
					S279.679,122.246,272.775,122.246z"/>
			</g>
			<g>
				<path d="M272.775,257.915H98.225c-3.866,0-7-3.134-7-7s3.134-7,7-7h174.551c3.866,0,7,3.134,7,7
					S276.642,257.915,272.775,257.915z"/>
			</g>
		</g>
		<g>
			<path d="M268.46,316.706H93.909c-3.866,0-7-3.134-7-7s3.134-7,7-7H268.46c3.866,0,7,3.134,7,7S272.326,316.706,268.46,316.706z"
				/>
		</g>
	</g>
</g>
<g>
</g>
<g>
</g>
<g>
</g>
<g>
</g>
<g>
</g>
<g>
</g>
<g>
</g>
<g>
</g>
<g>
</g>
<g>
</g>
<g>
</g>
<g>
</g>
<g>
</g>
<g>
</g>
<g>
</g>
</svg>
