<?xml version="1.0" encoding="iso-8859-1"?>
<!-- Generator: Adobe Illustrator 18.0.0, SVG Export Plug-In . SVG Version: 6.00 Build 0)  -->
<!DOCTYPE svg PUBLIC "-//W3C//DTD SVG 1.1//EN" "http://www.w3.org/Graphics/SVG/1.1/DTD/svg11.dtd">
<svg version="1.1" id="Capa_1" xmlns="http://www.w3.org/2000/svg" xmlns:xlink="http://www.w3.org/1999/xlink" x="0px" y="0px"
	 viewBox="0 0 297 297" style="enable-background:new 0 0 297 297;" xml:space="preserve">
<g>
	<circle cx="148.502" cy="105.362" r="17.255"/>
	<path d="M272.9,134.707c14.012-12.507,21.625-22.56,22.007-23.068c2.79-3.719,2.79-8.832,0.001-12.552
		c-0.567-0.755-14.168-18.72-38.882-36.692c-32.842-23.887-70.023-36.512-107.524-36.512c-37.501,0-74.683,12.625-107.526,36.511
		C16.262,80.367,2.659,98.332,2.092,99.087c-2.789,3.719-2.789,8.831,0,12.55c0.567,0.756,14.17,18.72,38.884,36.693
		c29.885,21.734,63.362,34.141,97.401,36.2c-0.208,2.344-0.334,4.711-0.334,7.107c0,43.825,35.654,79.479,79.479,79.479
		S297,235.463,297,191.638C297,169.332,287.751,149.155,272.9,134.707z M272.848,105.362c-3.803,4.204-9.58,10.135-17.142,16.595
		c-8.53-4.693-18.014-7.848-28.075-9.132c0.232-2.477,0.35-4.968,0.35-7.463c0-15.914-4.719-30.738-12.806-43.182
		c9.536,4.568,18.876,10.144,27.992,16.725C257.065,88.938,267.164,99.082,272.848,105.362z M143.139,163.669
		c-29.786-2.719-53.2-27.824-53.2-58.307c0-32.293,26.272-58.563,58.564-58.563c32.292,0,58.563,26.27,58.563,58.563
		c0,2.538-0.167,5.067-0.49,7.569C177.4,116.971,153.24,136.893,143.139,163.669z M24.153,105.362
		c5.687-6.283,15.785-16.428,29.681-26.457c9.118-6.581,18.459-12.157,27.996-16.726c-8.088,12.444-12.807,27.268-12.807,43.183
		c0,15.914,4.719,30.737,12.807,43.182c-9.537-4.568-18.878-10.145-27.996-16.726C39.937,121.787,29.837,111.642,24.153,105.362z
		 M217.522,250.201c-32.292,0-58.563-26.27-58.563-58.563c0-32.292,26.27-58.563,58.563-58.563c32.293,0,58.564,26.27,58.564,58.563
		C276.085,223.931,249.815,250.201,217.522,250.201z"/>
	<path d="M252.033,181.183h-0.002l-24.052,0.006v-24.061c0-5.775-4.683-10.458-10.458-10.458s-10.457,4.683-10.457,10.458v24.064
		l-24.042,0.007c-5.776,0-10.456,4.684-10.455,10.459c0.001,5.775,4.683,10.456,10.457,10.456h0.002l24.038-0.006v24.04
		c0,5.775,4.682,10.458,10.457,10.458s10.458-4.683,10.458-10.458v-24.045l24.056-0.006c5.776-0.001,10.457-4.685,10.456-10.46
		C262.49,185.863,257.809,181.183,252.033,181.183z"/>
</g>
<g>
</g>
<g>
</g>
<g>
</g>
<g>
</g>
<g>
</g>
<g>
</g>
<g>
</g>
<g>
</g>
<g>
</g>
<g>
</g>
<g>
</g>
<g>
</g>
<g>
</g>
<g>
</g>
<g>
</g>
</svg>
