<?xml version="1.0" encoding="iso-8859-1"?>
<!-- Generator: Adobe Illustrator 16.0.0, SVG Export Plug-In . SVG Version: 6.00 Build 0)  -->
<!DOCTYPE svg PUBLIC "-//W3C//DTD SVG 1.1//EN" "http://www.w3.org/Graphics/SVG/1.1/DTD/svg11.dtd">
<svg version="1.1" id="Capa_1" xmlns="http://www.w3.org/2000/svg" xmlns:xlink="http://www.w3.org/1999/xlink" x="0px" y="0px"
	 width="111.027px" height="111.028px" viewBox="0 0 111.027 111.028" style="enable-background:new 0 0 111.027 111.028;"
	 xml:space="preserve">
<g>
	<path d="M96.523,18.084H76.84C75.108,7.843,66.242,0,55.511,0C44.786,0,35.92,7.843,34.188,18.084H14.499
		c-7.045,0-12.773,5.733-12.773,12.77V98.26c0,7.046,5.733,12.768,12.773,12.768h82.03c7.045,0,12.772-5.722,12.772-12.768V30.854
		C109.308,23.817,103.568,18.084,96.523,18.084z M55.517,6.059c8.615,0,15.638,7.013,15.638,15.634
		c0,8.618-7.022,15.634-15.638,15.634c-8.618,0-15.634-7.017-15.634-15.634C39.883,13.066,46.899,6.059,55.517,6.059z
		 M103.255,98.273c0,3.699-3.015,6.714-6.72,6.714h-82.03c-3.706,0-6.72-3.015-6.72-6.714V30.86c0-3.703,3.014-6.717,6.72-6.717
		h19.574c1.235,10.799,10.32,19.243,21.438,19.243c11.109,0,20.2-8.444,21.441-19.243h19.565c3.705,0,6.714,3.014,6.714,6.717
		L103.255,98.273L103.255,98.273z M53.575,24.009c-1.279-1.075-1.448-2.984-0.375-4.268l6.558-7.82
		c1.088-1.271,2.979-1.451,4.262-0.375c1.295,1.079,1.448,2.985,0.372,4.268l-6.549,7.82c-0.603,0.715-1.46,1.084-2.326,1.084
		C54.828,24.725,54.131,24.494,53.575,24.009z M92.078,57.003c0,1.667-1.354,3.026-3.026,3.026H23.486
		c-1.669,0-3.026-1.359-3.026-3.026c0-1.673,1.357-3.026,3.026-3.026h65.565C90.725,53.977,92.078,55.325,92.078,57.003z
		 M92.078,69.611c0,1.673-1.354,3.026-3.026,3.026H23.486c-1.669,0-3.026-1.354-3.026-3.026c0-1.667,1.357-3.026,3.026-3.026h65.565
		C90.725,66.584,92.078,67.932,92.078,69.611z M92.078,82.224c0,1.661-1.354,3.027-3.026,3.027H23.486
		c-1.669,0-3.026-1.366-3.026-3.027c0-1.678,1.357-3.025,3.026-3.025h65.565C90.725,79.199,92.078,80.546,92.078,82.224z"/>
</g>
<g>
</g>
<g>
</g>
<g>
</g>
<g>
</g>
<g>
</g>
<g>
</g>
<g>
</g>
<g>
</g>
<g>
</g>
<g>
</g>
<g>
</g>
<g>
</g>
<g>
</g>
<g>
</g>
<g>
</g>
</svg>
