<?xml version="1.0" encoding="iso-8859-1"?>
<!-- Generator: Adobe Illustrator 21.0.0, SVG Export Plug-In . SVG Version: 6.00 Build 0)  -->
<svg xmlns="http://www.w3.org/2000/svg" xmlns:xlink="http://www.w3.org/1999/xlink" version="1.1" id="Capa_1" x="0px" y="0px" viewBox="0 0 512 512" style="enable-background:new 0 0 512 512;" xml:space="preserve" width="512" height="512">
<path d="M471.576,361.61v-57.307c0-45.08-36.676-81.756-81.756-81.756s-81.756,36.676-81.756,81.756v65.423  c0,38.957-31.694,70.651-70.652,70.651c-38.958,0-70.652-31.694-70.652-70.651v-28.035c29.656-3.009,57.932-14.87,80.884-34.165  l11.482-9.652l-20.494-24.379c19.46-21.082,31.374-49.228,31.374-80.113v-57.115c19.43-6.334,33.514-24.614,33.514-46.13  c0-26.751-21.763-48.514-48.514-48.514s-48.514,21.763-48.514,48.514c0,21.517,14.084,39.796,33.514,46.13v57.115  c0,21.674-7.86,41.542-20.872,56.918l-18.991-22.591l-11.482,9.651c-10.307,8.664-23.412,13.436-36.901,13.436  s-26.594-4.771-36.9-13.435l-11.482-9.652l-18.989,22.588c-13.012-15.376-20.874-35.242-20.874-56.916v-57.115  c19.43-6.334,33.514-24.614,33.514-46.13c0-26.751-21.763-48.514-48.514-48.514S0,63.386,0,90.137  c0,21.517,14.084,39.796,33.514,46.13v57.115c0,30.885,11.904,59.041,31.363,80.125l-20.484,24.367l11.482,9.652  c22.952,19.294,51.229,31.156,80.884,34.165v28.035c0,55.499,45.152,100.651,100.652,100.651c55.5,0,100.652-45.152,100.652-100.651  v-65.423c0-28.538,23.218-51.756,51.756-51.756s51.756,23.218,51.756,51.756v57.307c-23.293,6.56-40.423,27.982-40.423,53.344  c0,30.561,24.863,55.423,55.423,55.423c30.561,0,55.424-24.862,55.424-55.423C512,389.592,494.87,368.169,471.576,361.61z   M255.005,71.623c10.208,0,18.514,8.306,18.514,18.514c0,10.209-8.306,18.515-18.514,18.515s-18.514-8.306-18.514-18.515  C236.491,79.929,244.796,71.623,255.005,71.623z M48.514,71.623c10.208,0,18.514,8.306,18.514,18.514  c0,10.209-8.306,18.515-18.514,18.515S30,100.346,30,90.137C30,79.929,38.306,71.623,48.514,71.623z M107.876,268.979  c13.249,7.687,28.401,11.817,43.883,11.817c15.481,0,30.635-4.131,43.883-11.817l20.601,24.505  c-19.125,12.316-41.539,18.976-64.484,18.976s-45.358-6.659-64.484-18.976L107.876,268.979z M456.576,440.377  c-14.019,0-25.423-11.404-25.423-25.423s11.405-25.424,25.423-25.424S482,400.936,482,414.954S470.595,440.377,456.576,440.377z"/>















</svg>
